<?xml version="1.0" standalone="no"?>
<!DOCTYPE svg PUBLIC "-//W3C//DTD SVG 20010904//EN"
 "http://www.w3.org/TR/2001/REC-SVG-20010904/DTD/svg10.dtd">
<svg version="1.0" xmlns="http://www.w3.org/2000/svg"
 width="260.000000pt" height="260.000000pt" viewBox="0 0 260.000000 260.000000"
 preserveAspectRatio="xMidYMid meet">
<metadata>
Created by potrace 1.11, written by Peter Selinger 2001-2013
</metadata>
<g transform="translate(0.000000,260.000000) scale(0.100000,-0.100000)"
fill="#000000" stroke="none">
<path d="M956 2081 c-110 -110 -203 -198 -208 -195 -4 3 -8 73 -8 155 l0 150
-142 -3 -143 -3 -3 -305 -2 -305 -228 -227 -227 -228 173 0 173 0 410 408
c226 224 413 409 415 411 3 3 36 -26 74 -64 38 -38 72 -67 74 -64 3 2 14 27
26 54 12 27 37 71 56 97 18 26 34 51 34 56 0 11 -254 262 -265 262 -6 0 -100
-90 -209 -199z"/>
<path d="M1871 2145 c-151 -28 -287 -122 -380 -261 -152 -227 -125 -522 67
-725 119 -127 260 -189 426 -189 175 0 296 50 422 175 157 157 213 351 162
565 -18 76 -88 200 -148 261 -149 152 -343 213 -549 174z m237 -147 c7 -7 12
-35 12 -64 0 -51 1 -53 45 -78 l45 -27 51 26 c61 32 62 31 125 -76 l46 -79
-23 -20 c-13 -11 -36 -28 -51 -37 -25 -15 -28 -23 -28 -69 0 -51 1 -53 45 -81
25 -15 47 -33 49 -39 5 -12 -89 -177 -103 -182 -5 -2 -29 7 -52 18 -45 24 -84
22 -126 -5 -19 -13 -23 -24 -23 -64 0 -82 1 -81 -115 -81 -113 0 -115 1 -115
63 0 56 -10 74 -52 93 -39 17 -42 17 -87 0 -25 -9 -52 -18 -60 -19 -14 -2
-110 146 -111 170 0 7 22 28 50 45 49 32 50 34 50 83 -1 49 -2 51 -50 84 -28
18 -50 38 -50 44 0 12 90 166 102 173 4 3 33 -6 63 -20 l55 -25 36 21 c40 24
54 51 54 108 0 21 6 41 13 43 26 11 193 7 205 -5z"/>
<path d="M1935 1732 c-109 -51 -139 -182 -62 -269 68 -78 172 -84 251 -14 51
45 65 154 26 216 -44 71 -141 102 -215 67z"/>
<path d="M752 1407 l-412 -412 2 -360 3 -360 300 0 300 0 3 318 2 317 218 -2
217 -3 5 -315 5 -315 300 0 300 0 0 285 0 285 -78 7 c-90 8 -224 52 -304 99
-31 19 -92 69 -135 112 -66 66 -87 96 -128 180 -66 139 -92 280 -72 402 l10
60 -56 58 c-31 31 -59 57 -62 57 -3 0 -191 -186 -418 -413z"/>
</g>
</svg>
